<?xml version="1.0" encoding="UTF-8" standalone="no"?>
<svg
   xmlns:dc="http://purl.org/dc/elements/1.1/"
   xmlns:cc="http://creativecommons.org/ns#"
   xmlns:rdf="http://www.w3.org/1999/02/22-rdf-syntax-ns#"
   xmlns:svg="http://www.w3.org/2000/svg"
   xmlns="http://www.w3.org/2000/svg"
   id="svg8"
   version="1.1"
   viewBox="0 0 116.04433 114.56207"
   height="114.56207mm"
   width="116.04433mm">
  <defs
     id="defs2" />
  <metadata
     id="metadata5">
    <rdf:RDF>
      <cc:Work
         rdf:about="">
        <dc:format>image/svg+xml</dc:format>
        <dc:type
           rdf:resource="http://purl.org/dc/dcmitype/StillImage" />
        <dc:title></dc:title>
      </cc:Work>
    </rdf:RDF>
  </metadata>
  <g
     transform="translate(-48.606073,-86.166316)"
     id="layer1">
    <path
       id="path3691"
       d="m 102.63611,86.166316 c -12.771679,3.572708 -23.018818,12.755776 -32.214075,21.916794 -2.035343,2.57376 -8.617388,8.37451 -5.697784,10.65768 2.620153,-3.8113 11.370156,-6.36179 11.059646,0.85246 -0.288328,10.40995 0.391299,20.89634 0.249912,31.33888 -0.08696,6.71615 0.137842,13.47533 -0.405581,20.16069 -1.6495,5.99555 -13.145585,-3.23763 -8.957565,4.84923 5.839621,6.30168 13.387828,10.68781 20.38324,15.61105 2.282626,1.36501 10.324597,7.51658 9.260905,1.88919 -4.143552,-4.8095 -10.623191,-9.08476 -9.725344,-16.37712 0.432865,-11.40568 -0.486316,-22.86844 0.744735,-34.24185 6.259802,1.53646 8.032586,9.3602 12.59909,13.34818 7.040961,9.04554 14.115871,18.06707 20.930001,27.28592 5.60982,-0.62865 11.60867,-6.15331 12.91893,-10.84319 -3.70561,-0.84973 -8.68836,2.41414 -10.23624,-3.04054 -5.0785,-6.41186 -10.45379,-12.55858 -15.40357,-19.06633 -5.36125,-4.16253 0.73508,-7.94307 1.3054,-12.09728 -1.79813,-2.91922 -4.55347,-6.58679 -6.93168,-1.7317 -3.844315,4.68247 -9.480632,0.13869 -14.149525,0.59638 -3.104032,0.97577 -0.01344,-6.87557 -0.840302,-9.54907 0.229152,-8.70943 -0.07223,-17.43223 0.48946,-26.13227 2.445447,-6.390691 12.033147,-8.596978 15.873827,-2.253999 4.54175,4.445309 9.29728,8.778479 12.85549,14.091419 -0.3907,5.0628 -1.16173,10.97616 4.10218,13.82326 4.60863,-2.51845 7.59074,-9.59867 6.3453,-15.02092 -1.28531,-6.23369 -7.46966,-9.24711 -10.51404,-14.467051 -3.74332,-4.587493 -7.8099,-10.515323 -14.04241,-11.599813 z m 22.88904,3.459221 c -3.74266,0.813326 -12.67176,6.025889 -5.4114,8.787537 7.04139,-2.060851 13.23754,4.231516 16.57956,9.717856 3.85207,4.71921 -0.79443,10.66763 0.42034,14.85946 5.38914,-1.12805 6.38667,-7.5245 9.71182,-11.12325 2.36191,-7.31216 -8.31385,-11.35411 -12.42528,-16.177456 -2.71346,-2.325394 -5.50216,-4.748418 -8.87504,-6.064147 z m -20.11143,14.391883 c -3.30457,5.25146 -11.028307,12.19985 -7.460888,18.39958 9.542958,12.42045 20.857128,23.35976 30.858898,35.41056 3.26662,4.6173 9.07721,8.44436 8.63141,14.74205 -0.34066,6.28151 -5.55794,10.65083 -10.78369,13.25216 -4.77214,3.38408 -15.08421,7.30039 -17.21226,-0.86539 2.4e-4,-2.9344 -4.12253,-11.04568 -4.5484,-4.0955 0.13481,6.3133 -0.72708,13.23499 0.77977,19.16928 4.74111,2.51304 9.5437,-2.49551 14.26713,-3.41995 10.76646,-4.78592 21.99449,-10.98032 27.84991,-21.66444 3.91303,-6.56519 0.2871,-14.34811 -4.30607,-19.48627 -6.03726,-6.75109 -11.98647,-13.57649 -18.00864,-20.33719 -5.024,-3.48825 -7.91286,-9.20523 -12.97525,-12.65044 -4.81626,-3.41205 -2.20531,-10.2274 -1.99421,-13.77138 -1.75159,-1.50416 -3.24201,-3.29757 -5.09771,-4.68307 z m -50.969498,22.55367 c -4.548792,4.24911 -6.46218,11.84428 -5.660269,17.70475 0.484672,3.16379 1.982311,11.8054 5.611428,9.68705 1.238679,-5.68332 5.205125,-11.64103 2.644104,-17.42631 -0.924314,-3.30636 -1.499029,-6.70698 -2.595263,-9.96549 z m 105.348608,1.80764 c -3.84726,3.25225 -5.83894,9.61082 -4.38617,14.34999 0.8751,3.50622 4.24181,10.27672 6.266,3.65503 5.13813,-5.16421 2.88676,-12.35947 -1.17761,-17.32285 z"
       style="fill:#ff0000;stroke-width:0.35277778" />
  </g>
</svg>
